{"title":"On The Couch With Sterlo - 15-6-2016","uid":15113201,"size":1249334038,"categoryP":"video","categoryS":"tv_shows","magnet":"?xt=urn:btih:10c3007765f7d37afec1a0b6046bb6e6ead66660&amp;dn=On+The+Couch+With+Sterlo+-+15-6-2016&amp;tr=udp%3A%2F%2Ftracker.leechers-paradise.org%3A6969&amp;tr=udp%3A%2F%2Fzer0day.ch%3A1337&amp;tr=udp%3A%2F%2Fopen.demonii.com%3A1337&amp;tr=udp%3A%2F%2Ftracker.coppersurfer.tk%3A6969&amp;tr=udp%3A%2F%2Fexodus.desync.com%3A6969","seeders":3,"leechers":1,"uploader":"Bullrout","files":1,"time":1467026646,"description":"On The Couch With Sterlo - 15-6-2016\r\n\r\nPeter Sterling is joined by Braith Anasta, Justin Hodges &amp; James Hooper. They'll cross to both Origin camps to speak with Cameron Smith &amp; James Tamou plus Sterlo goes 1-on-1 with Sharks legend Andrew Ettingshausen.\r\n\r\nComplete name : On The Couch With Sterlo - 15-6-2016.mkv\r\nFormat : Matroska\r\nFormat version : Version 4 / Version 2\r\nFile size : 1.16 GiB\r\nDuration : 50mn 6s\r\nOverall bit rate mode : Variable\r\nOverall bit rate : 3 324 Kbps\r\nEncoded date : UTC 2016-06-15 13:23:48\r\nWriting application : mkvmerge v9.2.0 ('Photograph') 64bit\r\nWriting library : libebml v1.3.3 + libmatroska v1.4.4\r\n\r\nVideo\r\nID : 2\r\nFormat : AVC\r\nFormat/Info : Advanced Video Codec\r\nFormat profile :   \r\nFormat settings, CABAC : Yes\r\nFormat settings, ReFrames : 3 frames\r\nCodec ID : V_MPEG4/ISO/AVC\r\nDuration : 50mn 6s\r\nBit rate mode : Variable\r\nBit rate : 2 938 Kbps\r\nMaximum bit rate : 3 000 Kbps\r\nWidth : 1 280 pixels\r\nHeight : 720 pixels\r\nDisplay aspect ratio : 16:9\r\nFrame rate mode : Constant\r\nFrame rate : 25.000 fps\r\nStandard : PAL\r\nColor space : YUV\r\nChroma subsampling : 4:2:0\r\nBit depth : 8 bits\r\nScan type : Progressive\r\nBits/(Pixel*Frame) : 0.128\r\nStream size : 1.03 GiB (88%)\r\nWriting library : x264 core 112\r\nDefault : Yes\r\nForced : No\r\nColor range : Limited\r\nColor primaries : BT.709\r\nTransfer characteristics : BT.709\r\nMatrix coefficients : BT.709\r\n\r\nAudio\r\nID : 1\r\nFormat : AC-3\r\nFormat/Info : Audio Coding 3\r\nMode extension : CM (complete main)\r\nFormat settings, Endianness : Big\r\nCodec ID : A_AC3\r\nDuration : 50mn 6s\r\nBit rate mode : Constant\r\nBit rate : 384 Kbps\r\nChannel(s) : 6 channels\r\nChannel positions : Front: L C R, Side: L R, LFE\r\nSampling rate : 48.0 KHz\r\nFrame rate : 31.250 fps (1536 spf)\r\nCompression mode : Lossy\r\nStream size : 138 MiB (12%)\r\nDefault : Yes\r\nForced : No","torrent":{"xt":"urn:btih:10c3007765f7d37afec1a0b6046bb6e6ead66660","amp;dn":"On+The+Couch+With+Sterlo+-+15-6-2016","amp;tr":["udp%3A%2F%2Ftracker.leechers-paradise.org%3A6969","udp%3A%2F%2Fzer0day.ch%3A1337","udp%3A%2F%2Fopen.demonii.com%3A1337","udp%3A%2F%2Ftracker.coppersurfer.tk%3A6969","udp%3A%2F%2Fexodus.desync.com%3A6969"],"infoHash":"10c3007765f7d37afec1a0b6046bb6e6ead66660","infoHashBuffer":{"type":"Buffer","data":[16,195,0,119,101,247,211,122,254,193,160,182,4,107,182,230,234,214,102,96]},"announce":[],"urlList":[]}}